<svg xmlns="http://www.w3.org/2000/svg" width="38.47" height="28.03" viewBox="0 0 38.47 28.03">
  <defs>
    <style>
      .cls-1 {
        fill: #a0a0a0;
        fill-rule: evenodd;
      }
    </style>
  </defs>
  <path id="Forma_1_copy_2" data-name="Forma 1 copy 2" class="cls-1" d="M1221.43,5322.39a1.319,1.319,0,0,0-1.93,0,1.444,1.444,0,0,0,0,1.99l9.82,10.19H1196.9a1.371,1.371,0,0,0-1.35,1.41,1.386,1.386,0,0,0,1.35,1.42h32.42l-9.82,10.17a1.469,1.469,0,0,0,0,2.01,1.319,1.319,0,0,0,1.93,0l12.15-12.6a1.406,1.406,0,0,0,0-1.99Z" transform="translate(-1195.53 -5322)"/>
</svg>
