<?xml version="1.0" standalone="no"?>
<!DOCTYPE svg PUBLIC "-//W3C//DTD SVG 20010904//EN"
 "http://www.w3.org/TR/2001/REC-SVG-20010904/DTD/svg10.dtd">
<svg version="1.0" xmlns="http://www.w3.org/2000/svg"
 width="844.000000pt" height="844.000000pt" viewBox="0 0 844.000000 844.000000"
 preserveAspectRatio="xMidYMid meet">
<metadata>
Created by potrace 1.11, written by Peter Selinger 2001-2013
</metadata>
<g transform="translate(0.000000,844.000000) scale(0.100000,-0.100000)"
fill="#000000" stroke="none">
<path d="M3905 8243 c-38 -2 -124 -10 -190 -19 -128 -16 -190 -41 -220 -88
-11 -16 -40 -31 -93 -47 -65 -20 -95 -24 -192 -22 -146 3 -203 -10 -238 -55
-55 -68 -70 -80 -128 -102 -32 -12 -96 -25 -141 -30 -87 -8 -133 -28 -133 -58
0 -37 -88 -93 -165 -106 -78 -14 -101 -25 -118 -61 -20 -43 -75 -83 -169 -125
-57 -25 -81 -43 -110 -80 -27 -35 -50 -52 -85 -65 -50 -18 -87 -51 -114 -102
-12 -21 -31 -36 -65 -48 -64 -24 -73 -32 -94 -80 -21 -47 -42 -67 -92 -88 -37
-15 -78 -67 -78 -96 0 -18 -49 -71 -66 -71 -24 0 -66 -45 -88 -95 -15 -34 -40
-66 -71 -91 -32 -26 -56 -58 -72 -94 -35 -79 -67 -117 -121 -144 -53 -27 -66
-52 -77 -146 -7 -67 -32 -101 -95 -133 -60 -30 -80 -70 -80 -165 0 -78 -15
-122 -54 -154 -11 -9 -29 -17 -38 -18 -9 0 -26 -12 -37 -26 -18 -23 -21 -41
-21 -129 0 -149 -38 -261 -101 -297 -18 -11 -38 -36 -50 -64 -19 -41 -20 -54
-11 -136 8 -71 6 -121 -8 -241 -31 -262 -70 -531 -82 -567 -6 -19 -12 -42 -13
-50 -1 -8 -6 -23 -10 -34 -5 -11 1 -61 15 -125 12 -58 24 -124 27 -146 19
-192 51 -405 75 -500 27 -108 48 -140 106 -160 26 -10 97 -41 157 -71 122 -59
193 -77 375 -93 227 -20 396 -24 580 -12 309 20 448 48 541 107 49 31 73 40
174 69 111 31 152 50 197 90 21 20 76 53 121 75 45 21 109 62 142 91 33 29 85
68 115 87 49 31 249 226 250 244 0 4 -22 32 -49 63 -27 31 -60 71 -72 90 -17
25 -56 51 -131 91 -60 32 -123 74 -144 96 -20 22 -71 57 -113 78 -42 21 -93
56 -114 78 -20 22 -70 57 -110 76 -40 20 -102 61 -138 90 -35 29 -95 69 -134
89 -38 19 -86 53 -105 74 -21 24 -72 59 -126 87 -50 25 -101 57 -113 70 -25
26 -52 150 -40 183 12 33 56 57 179 101 63 22 136 49 161 60 26 11 81 25 122
32 86 13 98 10 277 -50 69 -23 161 -45 230 -55 147 -21 250 -46 325 -80 107
-48 168 -66 300 -86 184 -28 242 -43 342 -88 104 -47 255 -80 375 -82 97 -2
129 12 168 76 11 19 44 53 71 76 28 23 65 66 84 94 18 29 53 67 78 84 24 16
64 54 88 82 24 29 67 67 96 86 29 18 67 51 84 73 18 22 67 60 110 85 42 24
108 69 145 99 39 31 98 67 135 82 36 14 95 48 130 75 52 41 85 56 179 86 63
19 151 55 195 78 100 54 154 69 328 95 203 29 229 27 286 -24 41 -37 44 -62
17 -130 -13 -33 -32 -90 -41 -125 -20 -79 -45 -129 -95 -192 -21 -27 -46 -70
-56 -96 -34 -95 -52 -129 -93 -178 -23 -27 -61 -88 -86 -135 -25 -50 -63 -104
-90 -130 -26 -25 -57 -65 -70 -90 -13 -25 -44 -65 -70 -90 -26 -25 -65 -70
-88 -100 -54 -73 -360 -378 -417 -417 -25 -17 -59 -48 -76 -70 -18 -21 -60
-54 -94 -72 -43 -23 -72 -47 -93 -79 -18 -25 -54 -70 -81 -101 l-49 -54 6 -91
c4 -50 22 -194 41 -321 41 -267 59 -481 85 -1020 18 -351 18 -398 5 -474 -18
-105 -41 -158 -92 -213 -22 -24 -61 -66 -87 -95 -25 -28 -58 -54 -72 -58 -38
-9 -91 31 -156 117 -69 93 -72 98 -112 227 -26 80 -46 121 -80 166 -34 46 -53
86 -80 172 -26 82 -49 131 -85 185 -37 54 -60 102 -85 184 -23 73 -47 127 -69
155 -41 54 -68 107 -91 179 -21 66 -49 108 -80 120 -30 11 -158 -14 -200 -40
-18 -11 -40 -31 -48 -43 -8 -13 -43 -38 -78 -57 -73 -39 -164 -117 -338 -291
-191 -192 -239 -245 -267 -301 -14 -28 -48 -74 -74 -102 -36 -38 -58 -75 -85
-143 -20 -51 -55 -117 -76 -147 -52 -73 -64 -102 -99 -250 -16 -68 -45 -162
-65 -209 -19 -47 -41 -110 -49 -140 -23 -89 -38 -308 -34 -503 4 -209 2 -206
98 -254 65 -33 93 -62 109 -112 18 -54 31 -61 134 -64 52 -1 113 -8 138 -14
54 -15 139 -57 139 -69 0 -5 11 -23 25 -39 33 -39 89 -52 190 -44 92 8 161 2
370 -34 94 -15 168 -34 200 -49 27 -13 61 -26 75 -29 14 -2 45 -9 70 -15 100
-23 203 -29 344 -20 148 8 235 26 294 60 45 26 128 44 348 74 147 21 208 25
276 20 101 -7 137 5 169 60 32 53 146 96 293 110 99 9 116 17 141 63 24 44
102 88 173 97 95 12 117 22 147 69 30 48 100 92 184 117 34 10 52 24 77 59 36
50 59 65 114 75 50 10 77 30 100 75 16 32 28 41 63 50 67 18 117 58 142 115
28 62 108 139 179 170 58 26 104 73 138 143 11 24 30 47 43 52 33 13 74 66 80
108 10 59 23 82 57 100 50 27 65 46 82 104 21 72 48 105 110 132 48 21 53 27
69 78 9 30 17 75 17 99 0 56 19 84 76 111 62 28 84 74 90 186 7 111 18 138 63
161 70 36 75 48 82 200 8 168 33 250 96 314 68 70 94 182 73 317 -10 65 -10
119 1 278 16 242 16 606 0 807 -9 127 -9 162 4 228 12 62 13 97 5 165 -16 139
-36 189 -93 234 -51 40 -71 113 -72 268 -1 149 -18 193 -86 232 -61 34 -93
103 -108 235 -9 78 -30 114 -73 131 -33 12 -84 99 -98 169 -11 50 -20 63 -83
115 -22 18 -31 39 -42 93 -18 83 -37 113 -92 140 -58 28 -75 46 -117 123 -27
50 -49 75 -84 97 -34 22 -55 46 -77 87 -23 45 -40 63 -77 83 -47 26 -56 35
-101 105 -13 20 -42 44 -68 57 -43 20 -67 43 -112 107 -10 15 -41 38 -70 52
-82 41 -114 70 -133 119 -20 55 -62 80 -145 90 -49 6 -59 12 -104 60 -30 31
-63 56 -80 60 -17 4 -59 18 -95 31 -61 22 -85 40 -144 106 -15 17 -38 29 -62
32 -154 23 -255 64 -292 120 -43 65 -79 78 -190 72 -136 -8 -354 42 -367 84
-17 55 -136 86 -383 100 -134 7 -165 6 -245 -11 -117 -24 -198 -24 -317 1 -52
11 -120 19 -150 18 -30 -1 -86 -3 -125 -5z"/>
</g>
</svg>
